<svg width="193" height="76" viewBox="0 0 193 76" fill="none" xmlns="http://www.w3.org/2000/svg">
<mask id="path-1-inside-1_216_547" fill="white">
<path d="M26.5981 7.15256e-07H38.956C38.9323 4.61648 37.1686 8.30966 33.6648 11.0796C30.161 13.8258 25.438 15.1989 19.4958 15.1989C13.5062 15.1989 8.75951 13.8258 5.25573 11.0796C1.75194 8.30966 0.0118816 4.61648 0.0355559 7.15256e-07H12.2515C12.2278 1.49148 12.7605 2.86459 13.8495 4.11932C14.9622 5.35038 16.8443 5.96591 19.4958 5.96591C22.0289 5.96591 23.84 5.36222 24.929 4.15483C26.018 2.94744 26.5744 1.5625 26.5981 7.15256e-07ZM96.0952 75.9477C78.9952 75.9477 67.8952 66.8477 67.8952 51.5477H87.7952C87.7952 56.5477 91.6952 59.0477 96.0952 59.0477C100.095 59.0477 103.995 56.8477 103.995 53.0477C103.995 48.6477 98.4952 47.3477 91.7952 45.7477C81.6952 43.2477 68.7952 40.1477 68.7952 24.2477C68.7952 10.4477 78.8952 2.54773 95.3952 2.54773C112.195 2.54773 121.895 11.1477 121.895 25.4477H102.495C102.495 20.9477 99.1952 18.8477 95.1952 18.8477C91.7952 18.8477 88.4952 20.3477 88.4952 23.6477C88.4952 27.6477 93.7952 28.9477 100.295 30.6477C110.695 33.2477 124.095 36.7477 124.095 52.6477C124.095 67.9477 112.395 75.9477 96.0952 75.9477ZM179.723 7.15256e-07H192.081C192.057 4.61648 190.294 8.30966 186.79 11.0796C183.286 13.8258 178.563 15.1989 172.621 15.1989C166.631 15.1989 161.885 13.8258 158.381 11.0796C154.877 8.30966 153.137 4.61648 153.161 7.15256e-07H165.376C165.353 1.49148 165.885 2.86459 166.974 4.11932C168.087 5.35038 169.969 5.96591 172.621 5.96591C175.154 5.96591 176.965 5.36222 178.054 4.15483C179.143 2.94744 179.699 1.5625 179.723 7.15256e-07Z"/>
</mask>
<path d="M26.5981 7.15256e-07H38.956C38.9323 4.61648 37.1686 8.30966 33.6648 11.0796C30.161 13.8258 25.438 15.1989 19.4958 15.1989C13.5062 15.1989 8.75951 13.8258 5.25573 11.0796C1.75194 8.30966 0.0118816 4.61648 0.0355559 7.15256e-07H12.2515C12.2278 1.49148 12.7605 2.86459 13.8495 4.11932C14.9622 5.35038 16.8443 5.96591 19.4958 5.96591C22.0289 5.96591 23.84 5.36222 24.929 4.15483C26.018 2.94744 26.5744 1.5625 26.5981 7.15256e-07ZM96.0952 75.9477C78.9952 75.9477 67.8952 66.8477 67.8952 51.5477H87.7952C87.7952 56.5477 91.6952 59.0477 96.0952 59.0477C100.095 59.0477 103.995 56.8477 103.995 53.0477C103.995 48.6477 98.4952 47.3477 91.7952 45.7477C81.6952 43.2477 68.7952 40.1477 68.7952 24.2477C68.7952 10.4477 78.8952 2.54773 95.3952 2.54773C112.195 2.54773 121.895 11.1477 121.895 25.4477H102.495C102.495 20.9477 99.1952 18.8477 95.1952 18.8477C91.7952 18.8477 88.4952 20.3477 88.4952 23.6477C88.4952 27.6477 93.7952 28.9477 100.295 30.6477C110.695 33.2477 124.095 36.7477 124.095 52.6477C124.095 67.9477 112.395 75.9477 96.0952 75.9477ZM179.723 7.15256e-07H192.081C192.057 4.61648 190.294 8.30966 186.79 11.0796C183.286 13.8258 178.563 15.1989 172.621 15.1989C166.631 15.1989 161.885 13.8258 158.381 11.0796C154.877 8.30966 153.137 4.61648 153.161 7.15256e-07H165.376C165.353 1.49148 165.885 2.86459 166.974 4.11932C168.087 5.35038 169.969 5.96591 172.621 5.96591C175.154 5.96591 176.965 5.36222 178.054 4.15483C179.143 2.94744 179.699 1.5625 179.723 7.15256e-07Z" fill="#231F20"/>
<path d="M26.5981 7.15256e-07V-4H22.6582L22.5985 -0.0605952L26.5981 7.15256e-07ZM38.956 7.15256e-07L42.956 0.0205139L42.9766 -4H38.956V7.15256e-07ZM33.6648 11.0796L36.1323 14.2278L36.1389 14.2226L36.1455 14.2175L33.6648 11.0796ZM5.25573 11.0796L2.77509 14.2175L2.78163 14.2226L2.7882 14.2278L5.25573 11.0796ZM0.0355559 7.15256e-07V-4H-3.94398L-3.96439 -0.0205118L0.0355559 7.15256e-07ZM12.2515 7.15256e-07L16.251 0.063484L16.3155 -4H12.2515V7.15256e-07ZM13.8495 4.11932L10.8286 6.74121L10.855 6.77161L10.882 6.80148L13.8495 4.11932ZM24.929 4.15483L21.9587 1.47576L21.9587 1.47576L24.929 4.15483ZM26.5981 7.15256e-07V4H38.956V7.15256e-07V-4H26.5981V7.15256e-07ZM38.956 7.15256e-07L34.9561 -0.0205125C34.9384 3.42736 33.6974 5.95486 31.1842 7.94165L33.6648 11.0796L36.1455 14.2175C40.6398 10.6645 42.9263 5.8056 42.956 0.0205139L38.956 7.15256e-07ZM33.6648 11.0796L31.1973 7.93133C28.6014 9.96592 24.8423 11.1989 19.4958 11.1989V15.1989V19.1989C26.0337 19.1989 31.7206 17.6856 36.1323 14.2278L33.6648 11.0796ZM19.4958 15.1989V11.1989C14.0933 11.1989 10.314 9.96195 7.72325 7.93133L5.25573 11.0796L2.7882 14.2278C7.20499 17.6896 12.9191 19.1989 19.4958 19.1989V15.1989ZM5.25573 11.0796L7.73637 7.94165C5.23503 5.96424 4.01789 3.45473 4.0355 0.0205132L0.0355559 7.15256e-07L-3.96439 -0.0205118C-3.99413 5.77823 -1.73115 10.6551 2.77509 14.2175L5.25573 11.0796ZM0.0355559 7.15256e-07V4H12.2515V7.15256e-07V-4H0.0355559V7.15256e-07ZM12.2515 7.15256e-07L8.25197 -0.0634825C8.21084 2.52748 9.17294 4.8336 10.8286 6.74121L13.8495 4.11932L16.8704 1.49743C16.348 0.895574 16.2447 0.455476 16.251 0.063484L12.2515 7.15256e-07ZM13.8495 4.11932L10.882 6.80148C13.1052 9.26125 16.3747 9.96591 19.4958 9.96591V5.96591V1.96591C17.3138 1.96591 16.8191 1.43951 16.817 1.43716L13.8495 4.11932ZM19.4958 5.96591V9.96591C22.5365 9.96591 25.7154 9.25515 27.8993 6.8339L24.929 4.15483L21.9587 1.47576C21.9516 1.48365 21.8541 1.59672 21.489 1.71841C21.1 1.84809 20.4642 1.96591 19.4958 1.96591V5.96591ZM24.929 4.15483L27.8993 6.83391C29.6084 4.93899 30.5586 2.63381 30.5976 0.0605966L26.5981 7.15256e-07L22.5985 -0.0605952C22.5902 0.491187 22.4276 0.955901 21.9587 1.47576L24.929 4.15483ZM67.8952 51.5477V47.5477H63.8952V51.5477H67.8952ZM87.7952 51.5477H91.7952V47.5477H87.7952V51.5477ZM91.7952 45.7477L90.8341 49.6306L90.8501 49.6345L90.8661 49.6383L91.7952 45.7477ZM121.895 25.4477V29.4477H125.895V25.4477H121.895ZM102.495 25.4477H98.4952V29.4477H102.495V25.4477ZM100.295 30.6477L99.2831 34.5176L99.3041 34.523L99.3251 34.5283L100.295 30.6477ZM96.0952 75.9477V71.9477C88.2189 71.9477 82.1799 69.8528 78.1776 66.4411C74.2523 63.0951 71.8952 58.158 71.8952 51.5477H67.8952H63.8952C63.8952 60.2374 67.0881 67.5003 72.9879 72.5294C78.8105 77.4927 86.8716 79.9477 96.0952 79.9477V75.9477ZM67.8952 51.5477V55.5477H87.7952V51.5477V47.5477H67.8952V51.5477ZM87.7952 51.5477H83.7952C83.7952 55.1974 85.2705 58.2261 87.7595 60.2663C90.149 62.2249 93.1842 63.0477 96.0952 63.0477V59.0477V55.0477C94.6062 55.0477 93.4915 54.6206 92.8309 54.0792C92.2699 53.6193 91.7952 52.8981 91.7952 51.5477H87.7952ZM96.0952 59.0477V63.0477C98.7665 63.0477 101.573 62.3244 103.828 60.7575C106.161 59.1363 107.995 56.5025 107.995 53.0477H103.995H99.9952C99.9952 53.393 99.8797 53.7592 99.2626 54.188C98.5675 54.671 97.4239 55.0477 96.0952 55.0477V59.0477ZM103.995 53.0477H107.995C107.995 48.6269 104.992 46.128 102.156 44.7499C99.4603 43.4402 95.9123 42.6184 92.7243 41.8571L91.7952 45.7477L90.8661 49.6383C94.3781 50.477 96.9301 51.1052 98.6596 51.9455C99.4742 52.3413 99.8069 52.6503 99.9232 52.7939C99.9705 52.8523 99.9952 52.8711 99.9952 53.0477H103.995ZM91.7952 45.7477L92.7563 41.8649C87.5398 40.5737 82.5483 39.313 78.7688 36.7231C75.3467 34.3782 72.7952 30.8508 72.7952 24.2477H68.7952H64.7952C64.7952 33.5446 68.6937 39.5173 74.2467 43.3224C79.4421 46.8825 85.9507 48.4218 90.8341 49.6306L91.7952 45.7477ZM68.7952 24.2477H72.7952C72.7952 18.4133 74.8795 14.1909 78.4189 11.3362C82.0734 8.38876 87.7262 6.54773 95.3952 6.54773V2.54773V-1.45227C86.5642 -1.45227 78.917 0.656703 73.3965 5.10921C67.7609 9.65458 64.7952 16.2822 64.7952 24.2477H68.7952ZM95.3952 2.54773V6.54773C103.154 6.54773 108.735 8.53326 112.319 11.6528C115.83 14.7077 117.895 19.2537 117.895 25.4477H121.895H125.895C125.895 17.3418 123.11 10.4378 117.571 5.6177C112.106 0.862202 104.436 -1.45227 95.3952 -1.45227V2.54773ZM121.895 25.4477V21.4477H102.495V25.4477V29.4477H121.895V25.4477ZM102.495 25.4477H106.495C106.495 22.1231 105.225 19.2903 102.883 17.3683C100.653 15.5382 97.8418 14.8477 95.1952 14.8477V18.8477V22.8477C96.5487 22.8477 97.3873 23.2073 97.8075 23.5522C98.1158 23.8052 98.4952 24.2724 98.4952 25.4477H102.495ZM95.1952 18.8477V14.8477C92.9889 14.8477 90.5082 15.3216 88.4381 16.6259C86.2156 18.026 84.4952 20.4131 84.4952 23.6477H88.4952H92.4952C92.4952 23.5197 92.5186 23.5224 92.4947 23.5622C92.4825 23.5827 92.5155 23.5123 92.7024 23.3946C93.1322 23.1238 94.0015 22.8477 95.1952 22.8477V18.8477ZM88.4952 23.6477H84.4952C84.4952 27.9607 87.5753 30.3294 90.2111 31.6087C92.789 32.86 96.2049 33.7125 99.2831 34.5176L100.295 30.6477L101.307 26.7779C97.8855 25.883 95.4014 25.2355 93.7044 24.4117C92.8994 24.021 92.5824 23.7297 92.4851 23.614C92.4646 23.5896 92.4952 23.661 92.4952 23.6477H88.4952ZM100.295 30.6477L99.3251 34.5283C104.649 35.8593 109.876 37.2465 113.834 39.9595C117.465 42.4489 120.095 46.0991 120.095 52.6477H124.095H128.095C128.095 43.2964 124.025 37.2466 118.357 33.361C113.015 29.699 106.341 28.0361 101.265 26.7672L100.295 30.6477ZM124.095 52.6477H120.095C120.095 59.167 117.66 63.7966 113.731 66.8941C109.679 70.0886 103.648 71.9477 96.0952 71.9477V75.9477V79.9477C104.842 79.9477 112.811 77.8069 118.684 73.1764C124.681 68.4488 128.095 61.4285 128.095 52.6477H124.095ZM179.723 7.15256e-07V-4H175.783L175.724 -0.0605952L179.723 7.15256e-07ZM192.081 7.15256e-07L196.081 0.0205139L196.102 -4H192.081V7.15256e-07ZM186.79 11.0796L189.257 14.2278L189.264 14.2226L189.27 14.2175L186.79 11.0796ZM158.381 11.0796L155.9 14.2175L155.907 14.2226L155.913 14.2278L158.381 11.0796ZM153.161 7.15256e-07V-4H149.181L149.161 -0.0205118L153.161 7.15256e-07ZM165.376 7.15256e-07L169.376 0.063484L169.44 -4H165.376V7.15256e-07ZM166.974 4.11932L163.954 6.74121L163.98 6.77161L164.007 6.80148L166.974 4.11932ZM178.054 4.15483L175.084 1.47576L175.084 1.47576L178.054 4.15483ZM179.723 7.15256e-07V4H192.081V7.15256e-07V-4H179.723V7.15256e-07ZM192.081 7.15256e-07L188.081 -0.0205125C188.063 3.42736 186.822 5.95486 184.309 7.94165L186.79 11.0796L189.27 14.2175C193.765 10.6645 196.051 5.8056 196.081 0.0205139L192.081 7.15256e-07ZM186.79 11.0796L184.322 7.93133C181.726 9.96592 177.967 11.1989 172.621 11.1989V15.1989V19.1989C179.159 19.1989 184.846 17.6856 189.257 14.2278L186.79 11.0796ZM172.621 15.1989V11.1989C167.218 11.1989 163.439 9.96195 160.848 7.93133L158.381 11.0796L155.913 14.2278C160.33 17.6896 166.044 19.1989 172.621 19.1989V15.1989ZM158.381 11.0796L160.861 7.94165C158.36 5.96424 157.143 3.45473 157.161 0.0205132L153.161 7.15256e-07L149.161 -0.0205118C149.131 5.77823 151.394 10.6551 155.9 14.2175L158.381 11.0796ZM153.161 7.15256e-07V4H165.376V7.15256e-07V-4H153.161V7.15256e-07ZM165.376 7.15256e-07L161.377 -0.0634825C161.336 2.52748 162.298 4.8336 163.954 6.74121L166.974 4.11932L169.995 1.49743C169.473 0.895574 169.37 0.455476 169.376 0.063484L165.376 7.15256e-07ZM166.974 4.11932L164.007 6.80148C166.23 9.26125 169.5 9.96591 172.621 9.96591V5.96591V1.96591C170.439 1.96591 169.944 1.43951 169.942 1.43716L166.974 4.11932ZM172.621 5.96591V9.96591C175.662 9.96591 178.84 9.25515 181.024 6.8339L178.054 4.15483L175.084 1.47576C175.077 1.48365 174.979 1.59672 174.614 1.71841C174.225 1.84809 173.589 1.96591 172.621 1.96591V5.96591ZM178.054 4.15483L181.024 6.83391C182.733 4.93899 183.684 2.63381 183.723 0.0605966L179.723 7.15256e-07L175.724 -0.0605952C175.715 0.491187 175.553 0.955901 175.084 1.47576L178.054 4.15483Z" fill="black" mask="url(#path-1-inside-1_216_547)"/>
</svg>
