<svg width="332" height="332" viewBox="0 0 332 332" fill="none" xmlns="http://www.w3.org/2000/svg">
<rect x="1.5" y="1.5" width="329" height="329" rx="164.5" fill="url(#paint0_linear_95_1283)" stroke="black" stroke-width="3"/>
<mask id="path-2-inside-1_95_1283" fill="white">
<path d="M90.3153 155.852H102.673C102.65 160.469 100.886 164.162 97.3821 166.932C93.8783 169.678 89.1553 171.051 83.2131 171.051C77.2235 171.051 72.4768 169.678 68.973 166.932C65.4692 164.162 63.7292 160.469 63.7528 155.852H75.9688C75.9451 157.344 76.4777 158.717 77.5668 159.972C78.6795 161.203 80.5616 161.818 83.2131 161.818C85.7462 161.818 87.5573 161.214 88.6463 160.007C89.7353 158.8 90.2917 157.415 90.3153 155.852ZM159.813 231.8C142.713 231.8 131.612 222.7 131.612 207.4H151.513C151.513 212.4 155.413 214.9 159.813 214.9C163.813 214.9 167.713 212.7 167.713 208.9C167.713 204.5 162.213 203.2 155.513 201.6C145.413 199.1 132.513 196 132.513 180.1C132.513 166.3 142.613 158.4 159.113 158.4C175.913 158.4 185.613 167 185.613 181.3H166.213C166.213 176.8 162.913 174.7 158.913 174.7C155.513 174.7 152.213 176.2 152.213 179.5C152.213 183.5 157.513 184.8 164.013 186.5C174.413 189.1 187.813 192.6 187.813 208.5C187.813 223.8 176.113 231.8 159.813 231.8ZM243.44 155.852H255.798C255.775 160.469 254.011 164.162 250.507 166.932C247.003 169.678 242.28 171.051 236.338 171.051C230.348 171.051 225.602 169.678 222.098 166.932C218.594 164.162 216.854 160.469 216.878 155.852H229.094C229.07 157.344 229.603 158.717 230.692 159.972C231.804 161.203 233.687 161.818 236.338 161.818C238.871 161.818 240.682 161.214 241.771 160.007C242.86 158.8 243.417 157.415 243.44 155.852Z"/>
</mask>
<path d="M90.3153 155.852H102.673C102.65 160.469 100.886 164.162 97.3821 166.932C93.8783 169.678 89.1553 171.051 83.2131 171.051C77.2235 171.051 72.4768 169.678 68.973 166.932C65.4692 164.162 63.7292 160.469 63.7528 155.852H75.9688C75.9451 157.344 76.4777 158.717 77.5668 159.972C78.6795 161.203 80.5616 161.818 83.2131 161.818C85.7462 161.818 87.5573 161.214 88.6463 160.007C89.7353 158.8 90.2917 157.415 90.3153 155.852ZM159.813 231.8C142.713 231.8 131.612 222.7 131.612 207.4H151.513C151.513 212.4 155.413 214.9 159.813 214.9C163.813 214.9 167.713 212.7 167.713 208.9C167.713 204.5 162.213 203.2 155.513 201.6C145.413 199.1 132.513 196 132.513 180.1C132.513 166.3 142.613 158.4 159.113 158.4C175.913 158.4 185.613 167 185.613 181.3H166.213C166.213 176.8 162.913 174.7 158.913 174.7C155.513 174.7 152.213 176.2 152.213 179.5C152.213 183.5 157.513 184.8 164.013 186.5C174.413 189.1 187.813 192.6 187.813 208.5C187.813 223.8 176.113 231.8 159.813 231.8ZM243.44 155.852H255.798C255.775 160.469 254.011 164.162 250.507 166.932C247.003 169.678 242.28 171.051 236.338 171.051C230.348 171.051 225.602 169.678 222.098 166.932C218.594 164.162 216.854 160.469 216.878 155.852H229.094C229.07 157.344 229.603 158.717 230.692 159.972C231.804 161.203 233.687 161.818 236.338 161.818C238.871 161.818 240.682 161.214 241.771 160.007C242.86 158.8 243.417 157.415 243.44 155.852Z" fill="#231F20"/>
<path d="M90.3153 155.852V151.852H86.3755L86.3158 155.792L90.3153 155.852ZM102.673 155.852L106.673 155.873L106.694 151.852H102.673V155.852ZM97.3821 166.932L99.8496 170.08L99.8562 170.075L99.8627 170.07L97.3821 166.932ZM68.973 166.932L66.4924 170.07L66.4989 170.075L66.5055 170.08L68.973 166.932ZM63.7528 155.852V151.852H59.7733L59.7529 155.832L63.7528 155.852ZM75.9688 155.852L79.9682 155.916L80.0327 151.852H75.9688V155.852ZM77.5668 159.972L74.5459 162.593L74.5723 162.624L74.5993 162.654L77.5668 159.972ZM88.6463 160.007L85.676 157.328L85.676 157.328L88.6463 160.007ZM90.3153 155.852V159.852H102.673V155.852V151.852H90.3153V155.852ZM102.673 155.852L98.6733 155.832C98.6557 159.28 97.4147 161.807 94.9015 163.794L97.3821 166.932L99.8627 170.07C104.357 166.517 106.644 161.658 106.673 155.873L102.673 155.852ZM97.3821 166.932L94.9146 163.784C92.3187 165.818 88.5596 167.051 83.2131 167.051V171.051V175.051C89.751 175.051 95.4379 173.538 99.8496 170.08L97.3821 166.932ZM83.2131 171.051V167.051C77.8105 167.051 74.0313 165.814 71.4405 163.784L68.973 166.932L66.5055 170.08C70.9223 173.542 76.6364 175.051 83.2131 175.051V171.051ZM68.973 166.932L71.4537 163.794C68.9523 161.817 67.7352 159.307 67.7528 155.873L63.7528 155.852L59.7529 155.832C59.7232 161.63 61.9861 166.507 66.4924 170.07L68.973 166.932ZM63.7528 155.852V159.852H75.9688V155.852V151.852H63.7528V155.852ZM75.9688 155.852L71.9693 155.789C71.9281 158.38 72.8902 160.686 74.5459 162.593L77.5668 159.972L80.5876 157.35C80.0653 156.748 79.962 156.308 79.9682 155.916L75.9688 155.852ZM77.5668 159.972L74.5993 162.654C76.8225 165.114 80.092 165.818 83.2131 165.818V161.818V157.818C81.0311 157.818 80.5364 157.292 80.5343 157.289L77.5668 159.972ZM83.2131 161.818V165.818C86.2538 165.818 89.4327 165.107 91.6166 162.686L88.6463 160.007L85.676 157.328C85.6689 157.336 85.5714 157.449 85.2063 157.571C84.8173 157.7 84.1815 157.818 83.2131 157.818V161.818ZM88.6463 160.007L91.6166 162.686C93.3257 160.791 94.2759 158.486 94.3149 155.913L90.3153 155.852L86.3158 155.792C86.3074 156.343 86.1449 156.808 85.676 157.328L88.6463 160.007ZM131.612 207.4V203.4H127.612V207.4H131.612ZM151.513 207.4H155.513V203.4H151.513V207.4ZM155.513 201.6L154.551 205.483L154.567 205.487L154.583 205.491L155.513 201.6ZM185.613 181.3V185.3H189.613V181.3H185.613ZM166.213 181.3H162.213V185.3H166.213V181.3ZM164.013 186.5L163 190.37L163.021 190.375L163.042 190.381L164.013 186.5ZM159.813 231.8V227.8C151.936 227.8 145.897 225.705 141.895 222.293C137.97 218.947 135.612 214.01 135.612 207.4H131.612H127.612C127.612 216.09 130.805 223.353 136.705 228.382C142.528 233.345 150.589 235.8 159.813 235.8V231.8ZM131.612 207.4V211.4H151.513V207.4V203.4H131.612V207.4ZM151.513 207.4H147.513C147.513 211.05 148.988 214.078 151.477 216.119C153.866 218.077 156.901 218.9 159.813 218.9V214.9V210.9C158.324 210.9 157.209 210.473 156.548 209.931C155.987 209.472 155.513 208.75 155.513 207.4H151.513ZM159.813 214.9V218.9C162.484 218.9 165.29 218.177 167.545 216.61C169.878 214.989 171.713 212.355 171.713 208.9H167.713H163.713C163.713 209.245 163.597 209.611 162.98 210.04C162.285 210.523 161.141 210.9 159.813 210.9V214.9ZM167.713 208.9H171.713C171.713 204.479 168.709 201.98 165.873 200.602C163.178 199.293 159.63 198.471 156.442 197.709L155.513 201.6L154.583 205.491C158.095 206.329 160.647 206.957 162.377 207.798C163.191 208.194 163.524 208.503 163.64 208.646C163.688 208.705 163.713 208.723 163.713 208.9H167.713ZM155.513 201.6L156.474 197.717C151.257 196.426 146.266 195.165 142.486 192.575C139.064 190.23 136.513 186.703 136.513 180.1H132.513H128.513C128.513 189.397 132.411 195.37 137.964 199.175C143.159 202.735 149.668 204.274 154.551 205.483L155.513 201.6ZM132.513 180.1H136.513C136.513 174.266 138.597 170.043 142.136 167.189C145.791 164.241 151.444 162.4 159.113 162.4V158.4V154.4C150.281 154.4 142.634 156.509 137.114 160.961C131.478 165.507 128.513 172.134 128.513 180.1H132.513ZM159.113 158.4V162.4C166.871 162.4 172.452 164.386 176.037 167.505C179.548 170.56 181.613 175.106 181.613 181.3H185.613H189.613C189.613 173.194 186.827 166.29 181.288 161.47C175.823 156.714 168.154 154.4 159.113 154.4V158.4ZM185.613 181.3V177.3H166.213V181.3V185.3H185.613V181.3ZM166.213 181.3H170.213C170.213 177.975 168.942 175.143 166.6 173.221C164.37 171.39 161.559 170.7 158.913 170.7V174.7V178.7C160.266 178.7 161.105 179.06 161.525 179.404C161.833 179.657 162.213 180.125 162.213 181.3H166.213ZM158.913 174.7V170.7C156.706 170.7 154.226 171.174 152.155 172.478C149.933 173.878 148.213 176.265 148.213 179.5H152.213H156.213C156.213 179.372 156.236 179.375 156.212 179.414C156.2 179.435 156.233 179.365 156.42 179.247C156.849 178.976 157.719 178.7 158.913 178.7V174.7ZM152.213 179.5H148.213C148.213 183.813 151.293 186.182 153.928 187.461C156.506 188.712 159.922 189.565 163 190.37L164.013 186.5L165.025 182.63C161.603 181.735 159.119 181.088 157.422 180.264C156.617 179.873 156.3 179.582 156.202 179.466C156.182 179.442 156.213 179.513 156.213 179.5H152.213ZM164.013 186.5L163.042 190.381C168.366 191.712 173.593 193.099 177.551 195.812C181.182 198.301 183.813 201.951 183.813 208.5H187.813H191.813C191.813 199.149 187.743 193.099 182.074 189.213C176.732 185.551 170.059 183.888 164.983 182.619L164.013 186.5ZM187.813 208.5H183.813C183.813 215.019 181.377 219.649 177.448 222.746C173.397 225.941 167.366 227.8 159.813 227.8V231.8V235.8C168.559 235.8 176.528 233.659 182.402 229.029C188.398 224.301 191.813 217.281 191.813 208.5H187.813ZM243.44 155.852V151.852H239.5L239.441 155.792L243.44 155.852ZM255.798 155.852L259.798 155.873L259.819 151.852H255.798V155.852ZM250.507 166.932L252.975 170.08L252.981 170.075L252.988 170.07L250.507 166.932ZM222.098 166.932L219.617 170.07L219.624 170.075L219.63 170.08L222.098 166.932ZM216.878 155.852V151.852H212.898L212.878 155.832L216.878 155.852ZM229.094 155.852L233.093 155.916L233.158 151.852H229.094V155.852ZM230.692 159.972L227.671 162.593L227.697 162.624L227.724 162.654L230.692 159.972ZM241.771 160.007L238.801 157.328L238.801 157.328L241.771 160.007ZM243.44 155.852V159.852H255.798V155.852V151.852H243.44V155.852ZM255.798 155.852L251.798 155.832C251.781 159.28 250.54 161.807 248.026 163.794L250.507 166.932L252.988 170.07C257.482 166.517 259.769 161.658 259.798 155.873L255.798 155.852ZM250.507 166.932L248.04 163.784C245.444 165.818 241.685 167.051 236.338 167.051V171.051V175.051C242.876 175.051 248.563 173.538 252.975 170.08L250.507 166.932ZM236.338 171.051V167.051C230.936 167.051 227.156 165.814 224.566 163.784L222.098 166.932L219.63 170.08C224.047 173.542 229.761 175.051 236.338 175.051V171.051ZM222.098 166.932L224.579 163.794C222.077 161.817 220.86 159.307 220.878 155.873L216.878 155.852L212.878 155.832C212.848 161.63 215.111 166.507 219.617 170.07L222.098 166.932ZM216.878 155.852V159.852H229.094V155.852V151.852H216.878V155.852ZM229.094 155.852L225.094 155.789C225.053 158.38 226.015 160.686 227.671 162.593L230.692 159.972L233.713 157.35C233.19 156.748 233.087 156.308 233.093 155.916L229.094 155.852ZM230.692 159.972L227.724 162.654C229.948 165.114 233.217 165.818 236.338 165.818V161.818V157.818C234.156 157.818 233.661 157.292 233.659 157.289L230.692 159.972ZM236.338 161.818V165.818C239.379 165.818 242.558 165.107 244.742 162.686L241.771 160.007L238.801 157.328C238.794 157.336 238.696 157.449 238.331 157.571C237.942 157.7 237.307 157.818 236.338 157.818V161.818ZM241.771 160.007L244.742 162.686C246.451 160.791 247.401 158.486 247.44 155.913L243.44 155.852L239.441 155.792C239.432 156.343 239.27 156.808 238.801 157.328L241.771 160.007Z" fill="black" mask="url(#path-2-inside-1_95_1283)"/>
<defs>
<linearGradient id="paint0_linear_95_1283" x1="166" y1="0" x2="166" y2="332" gradientUnits="userSpaceOnUse">
<stop stop-color="#5DE4DA"/>
<stop offset="0.5" stop-color="#AEE7EC"/>
<stop offset="1" stop-color="#FFEBFF"/>
</linearGradient>
</defs>
</svg>
